<svg xmlns="http://www.w3.org/2000/svg" viewBox="0 0 96 96" fill="none">
  <title>¿Quién es el piloto? — casco e identidad</title>
  <path d="M29 5h38l24 24v38L67 91H29L5 67V29Z" fill="#151515" stroke="#e43c3c" stroke-opacity=".5"/>
  <path d="M30 12h36M12 30v36M84 30v36M30 84h36" stroke="#e43c3c" stroke-opacity=".24"/>
  <path d="M25 56V43c0-15 10-25 23-25s23 10 23 25v24H36L25 56Z" stroke="#ff4949" stroke-width="4" stroke-linejoin="round"/>
  <path d="M26 43h43v14H38L26 49Z" fill="#ff4949" fill-opacity=".16" stroke="#ff4949" stroke-width="3" stroke-linejoin="round"/>
  <path d="M43 31c0-3 2-5 5-5s5 2 5 5-5 4-5 7" stroke="#f4f4f4" stroke-width="3" stroke-linecap="round"/>
  <circle cx="48" cy="41" r="1.5" fill="#f4f4f4"/>
  <path d="M37 75h22M44 80h8" stroke="#ff4949" stroke-width="3" stroke-linecap="round"/>
</svg>
