<?xml version="1.0" encoding="UTF-8" standalone="no"?>
<!-- Created with Inkscape (http://www.inkscape.org/) -->
<svg
   xmlns:dc="http://purl.org/dc/elements/1.1/"
   xmlns:cc="http://creativecommons.org/ns#"
   xmlns:rdf="http://www.w3.org/1999/02/22-rdf-syntax-ns#"
   xmlns:svg="http://www.w3.org/2000/svg"
   xmlns="http://www.w3.org/2000/svg"
   xmlns:sodipodi="http://sodipodi.sourceforge.net/DTD/sodipodi-0.dtd"
   xmlns:inkscape="http://www.inkscape.org/namespaces/inkscape"
   width="570.97858"
   height="97.469574"
   id="svg2"
   sodipodi:version="0.32"
   inkscape:version="0.46"
   version="1.0"
   sodipodi:docname="SurteesLogo.svg"
   inkscape:output_extension="org.inkscape.output.svg.inkscape">
  <defs
     id="defs4">
    <inkscape:perspective
       sodipodi:type="inkscape:persp3d"
       inkscape:vp_x="0 : 526.18109 : 1"
       inkscape:vp_y="0 : 1000 : 0"
       inkscape:vp_z="744.09448 : 526.18109 : 1"
       inkscape:persp3d-origin="372.04724 : 350.78739 : 1"
       id="perspective10" />
    <inkscape:perspective
       id="perspective2390"
       inkscape:persp3d-origin="372.04724 : 350.78739 : 1"
       inkscape:vp_z="744.09448 : 526.18109 : 1"
       inkscape:vp_y="0 : 1000 : 0"
       inkscape:vp_x="0 : 526.18109 : 1"
       sodipodi:type="inkscape:persp3d" />
  </defs>
  <sodipodi:namedview
     id="base"
     pagecolor="#ffffff"
     bordercolor="#666666"
     borderopacity="1.0"
     inkscape:pageopacity="0.0"
     inkscape:pageshadow="2"
     inkscape:zoom="2.8"
     inkscape:cx="218.21547"
     inkscape:cy="-9.405485"
     inkscape:document-units="px"
     inkscape:current-layer="g3198"
     showgrid="false"
     inkscape:window-width="1440"
     inkscape:window-height="844"
     inkscape:window-x="-4"
     inkscape:window-y="-4" />
  <metadata
     id="metadata7">
    <rdf:RDF>
      <cc:Work
         rdf:about="">
        <dc:format>image/svg+xml</dc:format>
        <dc:type
           rdf:resource="http://purl.org/dc/dcmitype/StillImage" />
      </cc:Work>
    </rdf:RDF>
  </metadata>
  <g
     inkscape:label="Ebene 1"
     inkscape:groupmode="layer"
     id="layer1"
     transform="translate(-86.625657,-29.082729)">
    <g
       id="g3198">
      <g
         id="g3245">
        <path
           style="fill:none;fill-rule:evenodd;stroke:#000000;stroke-width:1px;stroke-linecap:butt;stroke-linejoin:miter;stroke-opacity:1"
           d="M 657.10423,41.452022 L 573.26157,125.54722 L 87.125657,126.0523 L 87.125657,113.93047 L 171.22086,29.582729 L 656.85169,29.582729 L 657.10423,41.452022 z"
           id="path2398" />
        <path
           style="fill:#000000;fill-opacity:1;fill-rule:evenodd;stroke:#b5bdb5;stroke-width:1px;stroke-linecap:butt;stroke-linejoin:miter;stroke-opacity:1"
           d="M 111.62186,100.79849 L 127.27923,85.898737 L 184.10031,85.898737 L 195.71706,74.029447 L 138.64344,74.029447 L 174.7564,38.169024 L 648.77048,38.169024 L 633.36565,53.068774 L 177.02924,53.068774 L 171.72594,58.877157 L 228.54702,59.129697 L 186.62569,101.05103 L 111.62186,100.79849 z"
           id="path2400" />
        <path
           style="fill:#000000;fill-opacity:1;fill-rule:evenodd;stroke:#b5bdb5;stroke-width:1px;stroke-linecap:butt;stroke-linejoin:miter;stroke-opacity:1"
           d="M 92.934034,119.99138 L 109.09647,104.58655 L 564.1702,105.34417 L 569.97857,99.030709 L 512.90496,99.030709 L 555.5839,56.856852 L 629.83011,57.361922 L 615.1829,72.009132 L 557.35167,72.261672 L 545.73491,84.383499 L 602.80853,84.130959 L 567.45319,119.99138 L 92.934034,119.99138 z"
           id="path2402" />
        <path
           style="fill:#000000;fill-opacity:1;fill-rule:evenodd;stroke:#b5bdb5;stroke-width:1px;stroke-linecap:butt;stroke-linejoin:miter;stroke-opacity:1"
           d="M 223.92011,87.919031 L 249.76021,87.919031 L 257.00261,87.919031 L 287.05464,57.867001 L 301.70186,58.119531 L 260.03306,99.788337 L 196.64599,100.04087 L 239.32494,57.867001 L 253.97215,57.867001 L 223.92011,87.919031 z"
           id="path3176"
           sodipodi:nodetypes="cccccccccc" />
        <path
           style="fill:#000000;fill-opacity:1;fill-rule:evenodd;stroke:#b5bdb5;stroke-width:1px;stroke-linecap:butt;stroke-linejoin:miter;stroke-opacity:1"
           d="M 266.36682,100.04087 L 309.04577,57.867009 L 368.39223,57.867009 L 338.59273,88.171579 L 329.50135,88.171579 L 338.08765,100.04087 L 323.44044,100.04087 L 314.34906,87.413965 L 296.92393,86.908889 L 282.52926,100.04087 L 266.36682,100.04087 z"
           id="path3178"
           sodipodi:nodetypes="ccccccccccc" />
        <path
           style="fill:#ffffff;fill-opacity:1;fill-rule:evenodd;stroke:#b5bdb5;stroke-width:1px;stroke-linecap:butt;stroke-linejoin:miter;stroke-opacity:1"
           d="M 339.63206,67.75282 C 332.05592,76.08658 331.80338,76.33912 331.80338,76.33912 L 307.30718,76.08658 L 315.13586,67.24775 L 339.63206,67.75282 z"
           id="path3180" />
        <path
           style="fill:#000000;fill-opacity:1;fill-rule:evenodd;stroke:#b5bdb5;stroke-width:1px;stroke-linecap:butt;stroke-linejoin:miter;stroke-opacity:1"
           d="M 368.66054,67.083149 L 377.85588,57.718209 L 425.37229,57.949079 L 416.49076,67.009179 L 401.86957,67.083149 L 368.22943,99.734798 L 353.22943,99.734798 L 386.49076,67.009179 L 368.66054,67.083149 z"
           id="path3192"
           sodipodi:nodetypes="ccccccccc" />
        <path
           style="fill:#000000;fill-opacity:1;fill-rule:evenodd;stroke:#b5bdb5;stroke-width:1px;stroke-linecap:butt;stroke-linejoin:miter;stroke-opacity:1"
           d="M 393.58069,99.788328 L 435.62829,57.993273 L 486.64099,57.867003 L 474.51916,69.988833 L 438.53247,69.988833 L 435.37575,73.019293 L 471.74124,73.145563 L 459.2406,85.014853 L 423.50645,85.014853 L 420.476,87.919043 L 453.55849,88.045313 L 441.31039,99.914598 L 393.58069,99.788328 z"
           id="path3194" />
        <path
           style="fill:#000000;fill-opacity:1;fill-rule:evenodd;stroke:#b5bdb5;stroke-width:1px;stroke-linecap:butt;stroke-linejoin:miter;stroke-opacity:1"
           d="M 453.62163,99.851462 L 495.66923,58.056407 L 546.68193,57.930137 L 534.5601,70.051967 L 498.57341,70.051967 L 495.41669,73.082427 L 531.78218,73.208697 L 519.28154,85.077987 L 483.54739,85.077987 L 480.51694,87.982177 L 513.59943,88.108447 L 501.35133,99.977732 L 453.62163,99.851462 z"
           id="path3196" />
      </g>
    </g>
  </g>
</svg>
